<svg id="Layer_1" data-name="Layer 1" xmlns="http://www.w3.org/2000/svg" viewBox="0 0 612 792">
  <defs>
    <style>
      .cls-1, .cls-3 {
        fill: #231f20;
      }

      .cls-1, .cls-2 {
        stroke: #231f20;
        stroke-miterlimit: 10;
        stroke-width: 0.8px;
      }

      .cls-2 {
        fill: none;
      }

      .cls-4 {
        fill: #fff;
      }

      .cls-5 {
        fill: #030303;
      }
    </style>
  </defs>
  <title>Artboard 1</title>
  <g>
    <polygon class="cls-1" points="95.29 376.61 95.29 416.6 146.1 416.6 130.96 376.61 95.29 376.61"/>
    <polygon class="cls-2" points="180.33 376.61 130.96 376.61 146.76 416.56 180.24 416.68 180.33 376.61"/>
  </g>
  <polygon class="cls-3" points="154.86 393.95 154.86 393.95 148.78 409.78 143.79 409.78 133.72 383.88 141.1 383.88 146.5 399.1 146.57 399.1 151.73 383.88 157.99 383.88 163.15 399.1 163.22 399.1 168.62 383.88 176 383.88 165.93 409.78 160.94 409.78 154.86 393.95 154.86 393.95"/>
  <polygon class="cls-4" points="122.6 399.7 122.6 399.7 128.68 383.88 133.67 383.88 143.75 409.78 136.37 409.78 130.97 394.55 130.9 394.55 125.73 409.78 119.47 409.78 114.31 394.55 114.24 394.55 108.84 409.78 101.46 409.78 111.53 383.88 116.53 383.88 122.6 399.7 122.6 399.7"/>
  <g>
    <path class="cls-5" d="M443.56,409.71H422.84v-5.08l7-7.05q3-3.12,3.91-4.27a9.31,9.31,0,0,0,1.28-2,4.21,4.21,0,0,0,.36-1.72,2.23,2.23,0,0,0-.72-1.76,3,3,0,0,0-2-.64,5.54,5.54,0,0,0-2.72.77,19.56,19.56,0,0,0-3.12,2.28l-4.24-5a22.88,22.88,0,0,1,3.71-2.82,13.28,13.28,0,0,1,3.27-1.3,16.15,16.15,0,0,1,4-.45,12,12,0,0,1,5,1,7.75,7.75,0,0,1,3.38,2.78,7.16,7.16,0,0,1,1.2,4.05,10.43,10.43,0,0,1-1.72,5.91,19.33,19.33,0,0,1-2.33,2.9q-1.45,1.52-6.2,5.78v.2h10.8Z"/>
    <path class="cls-5" d="M469.12,395.47q0,7.58-2.54,11.1t-7.77,3.53a8.83,8.83,0,0,1-7.71-3.68q-2.6-3.68-2.6-10.95,0-7.62,2.54-11.17t7.77-3.55a8.82,8.82,0,0,1,7.71,3.7Q469.12,388.15,469.12,395.47Zm-12.95,0a24.38,24.38,0,0,0,.61,6.66q.61,1.82,2,1.82t2-1.87a36.85,36.85,0,0,0,0-13.25q-.6-1.9-2-1.9t-2,1.84A24.83,24.83,0,0,0,456.17,395.47Z"/>
    <path class="cls-5" d="M490.52,409.71h-7.83V394.59q0-2.75.12-5a16.72,16.72,0,0,1-1.8,1.84l-3.24,2.68-4-4.92,9.8-8h7Z"/>
    <path class="cls-5" d="M500.64,409.71l9.8-22.13H498.08v-6.39h20.61v4.55l-10.06,24Z"/>
  </g>
  <g>
    <path class="cls-5" d="M214.19,384.57a6.63,6.63,0,0,0-5.69,2.76q-2,2.76-2,7.7,0,10.27,7.71,10.27a24.38,24.38,0,0,0,7.83-1.62v5.46a21.77,21.77,0,0,1-8.44,1.57q-6.7,0-10.25-4.06T199.79,395a19,19,0,0,1,1.74-8.39,12.59,12.59,0,0,1,5-5.52,14.81,14.81,0,0,1,7.65-1.92,20.66,20.66,0,0,1,9,2.16l-2.1,5.29a34.87,34.87,0,0,0-3.46-1.43A10.33,10.33,0,0,0,214.19,384.57Z"/>
    <path class="cls-5" d="M234.88,410.29h-6.4V377.62h6.4Z"/>
    <path class="cls-5" d="M252.65,410.71q-5.67,0-8.86-3.13t-3.19-8.86q0-5.9,2.95-9.12a10.5,10.5,0,0,1,8.16-3.22q5,0,7.75,2.83a10.72,10.72,0,0,1,2.77,7.83v3.11H247.09a6.16,6.16,0,0,0,1.62,4.26,5.69,5.69,0,0,0,4.24,1.53,17.61,17.61,0,0,0,4-.44,20.09,20.09,0,0,0,3.95-1.41v5a15.08,15.08,0,0,1-3.59,1.25A22.69,22.69,0,0,1,252.65,410.71Zm-.9-19.78a4.06,4.06,0,0,0-3.19,1.29,6,6,0,0,0-1.32,3.66h9a5.35,5.35,0,0,0-1.24-3.66A4.2,4.2,0,0,0,251.75,390.93Z"/>
    <path class="cls-5" d="M273.45,410.29l-8.94-23.47h6.7l4.54,13.37a23.88,23.88,0,0,1,.94,4.81h.13a20.91,20.91,0,0,1,.95-4.81l4.51-13.37H289L280,410.29Z"/>
    <path class="cls-5" d="M303.38,410.71q-5.67,0-8.86-3.13t-3.19-8.86q0-5.9,3-9.12a10.5,10.5,0,0,1,8.16-3.22q5,0,7.75,2.83A10.72,10.72,0,0,1,313,397v3.11H297.81a6.16,6.16,0,0,0,1.62,4.26,5.69,5.69,0,0,0,4.24,1.53,17.61,17.61,0,0,0,4-.44,20.11,20.11,0,0,0,3.95-1.41v5A15.1,15.1,0,0,1,308,410.3,22.68,22.68,0,0,1,303.38,410.71Zm-.9-19.78a4.06,4.06,0,0,0-3.19,1.29,6,6,0,0,0-1.32,3.66h9a5.34,5.34,0,0,0-1.24-3.66A4.19,4.19,0,0,0,302.48,390.93Z"/>
    <path class="cls-5" d="M325,410.29h-6.4V377.62H325Z"/>
    <path class="cls-5" d="M347,410.29l-1.24-3.19h-.17a9.47,9.47,0,0,1-3.33,2.82,10.77,10.77,0,0,1-4.46.79,7.21,7.21,0,0,1-5.32-1.93,7.42,7.42,0,0,1-1.94-5.5,6.2,6.2,0,0,1,2.61-5.51q2.61-1.77,7.88-2l4.07-.13v-1q0-3.57-3.65-3.57a16.65,16.65,0,0,0-6.61,1.7l-2.12-4.33a19.08,19.08,0,0,1,9-2.12q4.72,0,7.24,2.06t2.52,6.26v15.64Zm-1.89-10.88-2.48.08a7.93,7.93,0,0,0-4.16,1,3.17,3.17,0,0,0-1.37,2.81q0,2.71,3.11,2.71a4.93,4.93,0,0,0,3.56-1.28,4.5,4.5,0,0,0,1.33-3.4Z"/>
    <path class="cls-5" d="M380.21,410.29h-6.4V396.58a6.59,6.59,0,0,0-.9-3.81A3.29,3.29,0,0,0,370,391.5a4.32,4.32,0,0,0-3.88,1.79q-1.2,1.79-1.2,6v11h-6.4V386.82h4.89l.86,3h.36a6.77,6.77,0,0,1,2.95-2.57,10,10,0,0,1,4.27-.87q4.09,0,6.21,2.21t2.12,6.39Z"/>
    <path class="cls-5" d="M394.67,410.71a7.62,7.62,0,0,1-6.5-3.21q-2.36-3.21-2.36-8.9t2.4-9a7.81,7.81,0,0,1,6.62-3.22,7.66,7.66,0,0,1,6.76,3.44h.21a26.15,26.15,0,0,1-.48-4.68v-7.52h6.42v32.67h-4.91l-1.24-3h-.27A7.33,7.33,0,0,1,394.67,410.71Zm2.25-5.1a4.34,4.34,0,0,0,3.6-1.43q1.14-1.43,1.25-4.85v-.69q0-3.78-1.17-5.42a4.33,4.33,0,0,0-3.79-1.64,3.76,3.76,0,0,0-3.33,1.82,9.7,9.7,0,0,0-1.19,5.28,9.18,9.18,0,0,0,1.2,5.2A3.91,3.91,0,0,0,396.91,405.61Z"/>
  </g>
</svg>
